<svg width="100" height="100" viewBox="0 0 100 100" fill="none" xmlns="http://www.w3.org/2000/svg">
<path fill-rule="evenodd" clip-rule="evenodd" d="M74.2008 26.1159L75.0839 26.8143L75.5952 27.2706L76.3109 27.8666C77.4079 28.7791 80.0386 31.4424 80.7079 32.327C81.3865 33.2117 82 34.1801 82 34.357C82 34.4502 77.1476 40.1212 75.4743 41.9743C75.3 42.1673 75.3068 42.1789 75.7183 42.8777L75.7346 42.9055C76.3946 44.0229 77.6588 46.6675 78.1236 47.934C79.4901 51.6215 80.1408 55.2718 80.1408 59.3039C80.1408 61.6319 80.0479 62.7866 79.7132 64.8259C78.8301 70.171 76.6735 75.0412 73.2061 79.5389C72.2208 80.8147 69.2926 83.7945 68.0562 84.763C64.8213 87.3238 61.5027 89.1303 57.8308 90.3408C49.5575 93.0786 40.5777 92.4081 32.8715 88.4784C26.6526 85.3124 21.67 80.3211 18.5094 74.0914C13.0899 63.4105 14.0009 50.4854 20.8706 40.6706C25.7509 33.7145 33.1968 28.8816 41.4887 27.3078C46.4899 26.358 51.8443 26.6188 56.7804 28.0435C57.9331 28.3787 60.0897 29.1703 60.7218 29.4962L61.1587 29.7104L64.5145 25.8552L67.8703 22L68.3072 22.1862C69.3577 22.6332 71.9884 24.3932 74.2008 26.1159Z" fill="url(#paint0_linear_542_2262)"/>
<path d="M66 6.5L65 3.5L67 6.5L68 3V7L71 2L69 7.5L72.5 5L69.5 8.5L68 9.5L69 10C67.2276 18.0281 99.0578 8.42167 77 30L73 27C90.3691 12.5258 61.278 24.7912 65.5 9H66.5L66 6.5Z" fill="#FB6C6C" fill-opacity="0.5"/>
<path fill-rule="evenodd" clip-rule="evenodd" d="M75.0839 26.8143L74.2008 26.1159C71.9883 24.3932 69.3576 22.6332 68.3072 22.1862L67.8703 22L64.5145 25.8552L61.1587 29.7104C67.9951 33.57 70.9493 36.4234 75.3665 42.1785C75.3623 42.1014 75.4033 42.0529 75.4743 41.9743C77.1475 40.1212 82 34.4502 82 34.357C82 34.1801 81.3864 33.2117 80.7078 32.327C80.0385 31.4424 77.4078 28.7791 76.3109 27.8666L75.5951 27.2706L75.0839 26.8143Z" fill="#F79B9B"/>
<path opacity="0.075" fill-rule="evenodd" clip-rule="evenodd" d="M76.0472 43.4635C76.7365 44.7439 77.7246 46.8468 78.1236 47.9339C79.4901 51.6215 80.1408 55.2718 80.1408 59.3039C80.1408 61.6319 80.0479 62.7866 79.7132 64.8259C78.8301 70.171 76.6735 75.0412 73.2061 79.5389C72.2208 80.8146 69.2926 83.7945 68.0562 84.7629C64.8213 87.3237 61.5027 89.1303 57.8308 90.3408C49.5575 93.0786 40.5777 92.4081 32.8715 88.4784C26.9362 85.4568 22.1271 80.7726 18.9532 74.936C46.6639 82.9588 76.3852 70.4724 76.0472 43.4635Z" fill="#0E0A09"/>
<defs>
<linearGradient id="paint0_linear_542_2262" x1="82" y1="92" x2="0.462505" y2="50.7032" gradientUnits="userSpaceOnUse">
<stop offset="0.152248" stop-color="#FB6C6C"/>
<stop offset="0.823245" stop-color="#F79B9B"/>
</linearGradient>
</defs>
</svg>
