<svg width="100" height="100" viewBox="0 0 100 100" fill="none" xmlns="http://www.w3.org/2000/svg">
<path d="M40.1466 16.6106C47.0232 13.0453 62.2773 15.0334 62.2773 15.0334C67.1026 16.94 72.0098 20.2289 75.3857 24.4649C76.0925 25.3571 77.5284 27.667 78.0834 28.8091C79.9325 32.6037 80.969 36.734 81.3213 41.7269C82.0019 51.4446 79.5283 60.7834 73.9452 69.5454C68.4073 78.2404 61.4896 83.8485 53.3503 86.2277C52.4263 86.4996 50.4629 86.9294 49.5384 87.0701C46.5544 87.5149 43.7116 87.4532 41.1434 86.8763C39.5464 86.5182 34.8494 85.2947 34.1604 85.0623C30.0873 83.6703 26.3948 80.8835 23.2991 76.873C22.629 75.9979 21.0744 73.4708 20.6206 72.517C18.4341 67.8952 17.417 62.9708 17.4041 56.95C17.3766 47.9599 19.9466 39.3448 25.0633 31.2278C28.1819 26.2767 31.6717 22.4151 35.7993 19.3429C36.6775 18.6912 39.2388 17.0831 40.1466 16.6106Z" fill="#FFFDFC"/>
<path fill-rule="evenodd" clip-rule="evenodd" d="M38.7797 17.4034C39.2888 17.0949 39.7384 16.8337 40.0239 16.6852C40.3662 16.5078 40.7192 16.3393 41.0818 16.1795C40.7558 16.3133 40.4434 16.4568 40.1467 16.6106C39.8383 16.7711 39.339 17.0627 38.7797 17.4034ZM19.721 70.4293C19.9953 71.1337 20.295 71.8287 20.6207 72.517C20.8389 72.9756 21.3115 73.7979 21.818 74.6254C21.313 73.7999 20.842 72.9806 20.6242 72.5233C20.2973 71.8329 19.9964 71.1357 19.721 70.4293ZM34.3903 85.1351C35.8878 85.5968 43.0087 87.6656 44.5 88C57.8765 91.0049 69.2093 81.1621 76.0001 70.5C85.74 55.2145 87.4429 33.2502 73.5 21.5C71.4506 19.7729 66.9794 17.1542 63.7028 15.6471C63.7893 15.6935 63.8734 15.7408 63.955 15.7888C98.1132 35.9031 68.8965 93.026 34.3903 85.1351Z" fill="#F7CF68"/>
<g opacity="0.05">
<path d="M38.7786 17.404C39.2882 17.0953 39.7382 16.8338 40.0239 16.6852C40.3663 16.5078 40.7194 16.3392 41.082 16.1794C40.7559 16.3132 40.4435 16.4567 40.1467 16.6106C39.8381 16.7712 39.3383 17.0631 38.7786 17.404Z" fill="#0E0A09"/>
<path d="M19.719 70.424C19.9939 71.1302 20.2942 71.827 20.6207 72.517C20.8399 72.9777 21.316 73.8056 21.8251 74.637C21.3174 73.8076 20.8431 72.9828 20.6242 72.5232C20.2965 71.8311 19.995 71.1323 19.719 70.424Z" fill="#0E0A09"/>
<path d="M34.3904 85.1351C35.8881 85.5969 43.0088 87.6656 44.5 88C57.8766 91.0048 69.2093 81.1621 76.0001 70.5C85.74 55.2145 87.4429 33.2501 73.5 21.5C71.4505 19.7728 66.979 17.1539 63.7023 15.6469C63.789 15.6934 63.8733 15.7407 63.955 15.7888C98.1131 35.9031 68.8966 93.026 34.3904 85.1351Z" fill="#0E0A09"/>
</g>
<path fill-rule="evenodd" clip-rule="evenodd" d="M40.0239 16.6852C39.1188 17.156 36.5656 18.7592 35.6904 19.4091C31.5765 22.473 28.1002 26.3268 24.9959 31.2697C19.9027 39.3735 17.3512 47.9786 17.3919 56.9624C17.4137 62.979 18.4358 67.9014 20.6242 72.5233C21.0784 73.477 22.6332 76.0047 23.3031 76.8801C26.3978 80.8923 30.0861 83.6826 34.1522 85.0796C68.7619 93.2889 98.1916 35.9494 63.9549 15.7888C59.4582 13.1409 47.3009 12.9143 40.0239 16.6852Z" fill="#FFE7A8"/>
<path d="M27.1126 32.6L27.113 32.5993C30.0747 27.8835 33.3482 24.271 37.1821 21.4153C37.9571 20.8402 40.3944 19.3106 41.1768 18.9035C44.3577 17.256 48.7969 16.409 53.0784 16.3295C57.4488 16.2484 61.0432 16.9755 62.6864 17.9431C70.5997 22.6029 74.7648 29.3357 76.1516 36.7357C77.5515 44.2054 76.1333 52.4737 72.6064 60.0137C65.4909 75.2255 50.4986 86.3121 34.8502 82.6755C31.3698 81.4515 28.1058 79.0118 25.2864 75.3581C24.7161 74.6116 23.2597 72.2414 22.8825 71.4509C20.8774 67.2151 19.9126 62.6663 19.8919 56.9534L19.8919 56.9511C19.8535 48.4746 22.2539 40.3307 27.1126 32.6Z" stroke="#FFCA3F" stroke-opacity="0.5" stroke-width="5"/>
<path opacity="0.35" fill-rule="evenodd" clip-rule="evenodd" d="M82.54 36.1472C85.3939 47.244 82.4704 60.3457 76.0001 70.5C69.2093 81.1621 57.8766 91.0048 44.5 88C43.0088 87.6656 35.6499 85.5414 34.1522 85.0796C30.0861 83.6826 26.3978 80.8923 23.3031 76.8801C22.956 76.4264 22.3712 75.5291 21.8251 74.637C21.7933 74.585 21.7616 74.5331 21.7301 74.4812C21.6712 74.3843 21.6129 74.2877 21.5557 74.1921L21.5243 74.1396C21.1352 73.4879 20.7959 72.8852 20.6207 72.517C20.2942 71.827 19.9938 71.1302 19.719 70.424C19.2073 69.1107 18.7836 67.765 18.4443 66.37L78.2363 34.5658L82.54 36.1472Z" fill="#EFCA67"/>
<path d="M49.6798 54.6496C48.0137 56.0355 46.022 56.4391 44.6242 56.0309C42.4228 55.3881 40.4369 52.3649 41.9929 48.3153C43.5489 44.2657 47.223 42.8953 49.4243 43.5381C50.6974 43.9099 52.0939 44.5691 52.5795 46.2713L56.9065 44.0141C55.8764 41.5597 53.9022 39.6547 51.2177 38.8708C45.7882 37.2853 39.5094 40.8863 37.1934 46.9137C34.8774 52.9412 37.4014 59.1127 42.8308 60.6982C45.7379 61.5471 48.8886 60.9091 51.544 59.2079L49.6798 54.6496Z" fill="#FFF2F0"/>
<path d="M51.531 53.8925L50.4983 51.3673L48.4008 53.112C47.1418 54.1592 45.8239 54.2977 45.1848 54.1111C44.3047 53.8541 42.6455 52.1931 43.8599 49.0326C45.1035 45.796 47.816 45.152 48.8637 45.4579C49.4041 45.6157 49.81 45.7917 50.102 46.0094C50.3556 46.1983 50.5457 46.4325 50.6562 46.8199L51.3292 49.1792L53.5045 48.0445L57.8315 45.7873L59.4626 44.9364L58.7506 43.2401C57.5045 40.2709 55.083 37.9159 51.7783 36.9509C45.1457 35.0141 37.934 39.41 35.3265 46.1964C32.6954 53.0438 35.4561 60.6282 42.2702 62.618C45.826 63.6564 49.5695 62.8481 52.6229 60.892L54.0259 59.9931L53.3952 58.4508L51.531 53.8925Z" stroke="#FFCA3F" stroke-opacity="0.5" stroke-width="4"/>
</svg>
