<svg width="100" height="100" viewBox="0 0 100 100" fill="none" xmlns="http://www.w3.org/2000/svg">
<rect x="20" y="20" width="60" height="60" fill="#B19CD8"/>
<rect opacity="0.05" x="20" y="20" width="60" height="60" fill="#15101A"/>
<g opacity="0.4">
<mask id="path-3-inside-1_544_2391" fill="white">
<path d="M20 15H80V30H20V15Z"/>
</mask>
<path d="M80 25H20V35H80V25Z" fill="#BEA9DF" mask="url(#path-3-inside-1_544_2391)"/>
</g>
<g opacity="0.4">
<mask id="path-5-inside-2_544_2391" fill="white">
<path d="M20 30H80V45H20V30Z"/>
</mask>
<path d="M80 40H20V50H80V40Z" fill="#BEA9DF" mask="url(#path-5-inside-2_544_2391)"/>
</g>
<g opacity="0.4">
<mask id="path-7-inside-3_544_2391" fill="white">
<path d="M20 45H80V60H20V45Z"/>
</mask>
<path d="M80 55H20V65H80V55Z" fill="#BEA9DF" mask="url(#path-7-inside-3_544_2391)"/>
</g>
<g opacity="0.4">
<mask id="path-9-inside-4_544_2391" fill="white">
<path d="M20 60H80V75H20V60Z"/>
</mask>
<path d="M80 70H20V80H80V70Z" fill="#BEA9DF" mask="url(#path-9-inside-4_544_2391)"/>
</g>
<rect x="12.929" y="80.1751" width="95" height="10" transform="rotate(-45 12.929 80.1751)" fill="#BEA9DF"/>
<rect x="20" y="13" width="95" height="10" transform="rotate(45 20 13)" fill="#BEA9DF"/>
<path fill-rule="evenodd" clip-rule="evenodd" d="M90 90V10H20H10V90H90ZM80 80H20V20H80V80Z" fill="#CCB7E5"/>
<path opacity="0.1" d="M10 71L90 43.5V90H10V71Z" fill="#15101A"/>
</svg>
