<svg width="100" height="100" viewBox="0 0 100 100" fill="none" xmlns="http://www.w3.org/2000/svg">
<path d="M60.7549 6.70271C60.5714 7.63919 59.7398 12.0297 58.8959 16.4568C52.7806 48.4797 52.2179 51.4351 52.1813 51.4838C52.1446 51.5081 50.4812 46.9716 47.2646 38.0568C46.5796 36.1595 45.9926 34.5905 45.9681 34.5541C45.9314 34.5297 45.699 38.75 45.4422 43.9554C45.1854 49.1487 44.953 53.4297 44.9407 53.4419C44.9163 53.4662 44.8307 53.3568 44.7573 53.1987C44.0234 51.7757 19.5133 6.28919 19.4766 6.31351C19.4522 6.35 27.9402 60.0216 28.0503 60.423C28.0747 60.5446 28.0625 60.6419 28.0258 60.6297C27.9769 60.6297 24.5523 57.0176 20.4184 52.6027C16.2845 48.2 12.3584 44.0284 11.7102 43.3473L10.5238 42.0946L12.2361 46.5946C13.1656 49.0635 16.0154 56.5676 18.5716 63.2568C21.1155 69.9459 23.1825 75.4311 23.1703 75.4554C23.1336 75.4919 7.38057 64.4487 6.10859 63.5122C5.96183 63.4027 5.96183 63.427 6.12082 63.6824C6.2309 63.8527 10.8296 70.9676 16.3578 79.4932L26.3992 95L29.7993 94.623L33.1994 94.2459L33.1627 93.9541C33.1504 93.7959 32.172 89.1014 30.9856 83.5189C29.8115 77.9486 28.8575 73.3635 28.882 73.3514C28.9064 73.327 31.2058 75.4189 33.9944 77.9973C36.8319 80.6122 39.0823 82.6068 39.119 82.5216C39.1557 82.3878 39.0334 77.9973 38.7643 69.9459C38.7031 68.1338 38.6175 65.2635 38.5808 63.5608C38.5441 61.8581 38.483 60.3257 38.4463 60.1554C38.3974 59.9487 38.4218 59.8878 38.5074 59.973C38.5808 60.0459 40.868 64.0108 43.5831 68.7784C46.3106 73.5581 48.561 77.3892 48.5977 77.2919C48.6222 77.1946 48.9768 74.7135 49.3927 71.7703C49.8085 68.827 50.1754 66.2851 50.2244 66.1149C50.2855 65.823 50.2977 65.8351 50.4567 66.2851C51.533 69.3135 53.3676 74.0081 53.4288 73.9108C53.4777 73.8378 54.395 70.9919 55.4591 67.5865C57.3426 61.627 57.416 61.4081 57.5016 61.9554C57.5627 62.2716 57.7951 65.5676 58.0275 69.277C58.48 76.3189 58.6879 79.2743 58.7369 79.3351C58.7613 79.3473 61.8801 76.7446 65.6716 73.5459C69.4753 70.3473 72.5941 67.7446 72.6186 67.7568C72.6308 67.7689 72.3128 68.8149 71.9214 70.0797C71.5178 71.3446 70.3315 75.1149 69.2796 78.4595C66.5644 87.0581 66.4299 87.5203 66.5033 87.5203C66.54 87.5203 68.1422 87.0095 70.0624 86.377C74.4165 84.9419 75.823 84.4919 75.823 84.5405C75.823 84.5527 74.6366 85.8419 73.1934 87.4108C71.7502 88.9797 70.6128 90.2689 70.6617 90.2811C70.7106 90.2932 72.9244 90.5851 75.5784 90.9257C78.2324 91.2541 81.8405 91.7162 83.5894 91.9473C85.3384 92.1662 86.7816 92.3486 86.7939 92.3365C86.8183 92.3243 85.2039 91.0108 83.2225 89.4176C81.2289 87.8243 79.5778 86.4743 79.5411 86.4135C79.5044 86.3527 81.9261 83.6162 84.9226 80.3203C87.9068 77.0243 90.3407 74.3122 90.3163 74.2878C90.2918 74.2635 86.9284 75.6743 82.8434 77.4135C78.7583 79.1527 75.3949 80.5757 75.3827 80.5514C75.3705 80.5392 76.0187 78.7757 76.8259 76.6351C80.0793 67.9514 85.3629 53.8797 87.1363 49.1487C90.8177 39.3216 93.2516 32.8392 93.6185 31.8905C93.8509 31.2946 94.0221 30.7838 93.9977 30.7595C93.9732 30.7351 88.4328 37.0595 81.6815 44.8189C74.9302 52.5905 69.3897 58.8905 69.3652 58.8297C69.353 58.7811 69.671 55.4486 70.0746 51.4473C70.4905 47.4459 70.8574 43.8095 70.8941 43.3716L70.9552 42.5811L69.4998 44.7703C68.7048 45.9743 66.7846 48.8932 65.2435 51.2405C63.6903 53.6 62.3938 55.5338 62.3449 55.5338C62.2837 55.5338 62.247 54.8405 62.247 53.977C62.247 53.1257 62.1859 50.3527 62.1247 47.8108C62.0636 45.2689 61.9535 40.7203 61.8801 37.7162C61.8067 34.7 61.6967 30.0541 61.6355 27.3784C61.5744 24.7027 61.4643 19.9108 61.3787 16.7365C61.3053 13.5622 61.2074 9.62162 61.1707 7.97973L61.0851 5L60.7549 6.70271Z" fill="url(#paint0_linear_542_2037)"/>
<defs>
<linearGradient id="paint0_linear_542_2037" x1="94.0518" y1="82.9891" x2="-7.12964" y2="43.5004" gradientUnits="userSpaceOnUse">
<stop stop-color="#FB6C6C"/>
<stop offset="1" stop-color="#F7B79B"/>
</linearGradient>
</defs>
</svg>
