<svg width="100" height="100" viewBox="0 0 100 100" fill="none" xmlns="http://www.w3.org/2000/svg">
<path d="M84 48C74.7886 43.9423 69.7307 44.0546 60.875 48C51.8441 51.9414 46.7809 51.7163 37.75 48L37.75 20C47.1723 24.0121 52.1741 23.3825 60.875 20C69.9061 16.7361 74.9689 16.6854 84 20L77.5 33L84 48Z" fill="#FFE7A8"/>
<rect x="38" y="13" width="80" height="10" transform="rotate(90 38 13)" fill="#FFD873"/>
<circle cx="33" cy="14" r="8" fill="#FFD873"/>
<path d="M28 70.5L38 63.5V93H28V70.5Z" fill="#EAC563" fill-opacity="0.75"/>
<path d="M39.8564 10C42.0655 13.8263 40.7545 18.7191 36.9282 20.9282C33.1019 23.1373 28.2091 21.8263 26 18C28.5981 16.5 29.1019 16.2091 32.9282 14C36.7545 11.7909 35.5263 12.5 39.8564 10Z" fill="#EAC563" fill-opacity="0.75"/>
</svg>
