<svg width="100" height="100" viewBox="0 0 100 100" fill="none" xmlns="http://www.w3.org/2000/svg">
<path fill-rule="evenodd" clip-rule="evenodd" d="M77.5969 81.8442C77.6902 84.0546 77.2965 86.2064 76.7002 86.6633C76.5478 86.7744 76.264 86.8777 76.0679 86.8858C75.5449 86.9073 63.7541 82.1643 63.3578 81.7745C63.1801 81.5983 62.4856 80.6573 61.8155 79.676L61.7984 79.651C61.0576 78.5676 60.7039 78.0503 60.6199 77.4927C60.5432 76.9831 60.6917 76.4399 60.9759 75.4002L60.9796 75.3867C61.1948 74.5918 61.3355 73.8916 61.2946 73.8539C61.2407 73.8169 60.2279 73.7144 59.0332 73.6456C57.8379 73.5637 56.7195 73.4393 56.5331 73.3684C56.1463 73.2009 53.6819 69.7384 53.5389 69.1416C53.4608 68.8435 53.6043 68.2087 54.0882 66.6427C54.446 65.5013 54.7189 64.5205 54.665 64.4834C54.6241 64.4458 53.596 64.2915 52.3844 64.1317C51.1727 63.9719 50.0384 63.7827 49.8657 63.7243C49.293 63.4989 49.1931 62.992 49.215 60.41L49.2463 58.0503L48.3675 56.7763C47.8926 56.0752 47.4199 55.4264 47.3376 55.3381L38.5658 42.4947L50.6 38.8434L56.925 47.9081C56.9044 47.9292 58.1019 49.6591 59.5883 51.7423C66.6907 61.7617 73.1134 71.1931 75.5055 75.1171C76.8142 77.2644 77.4969 79.4768 77.5969 81.8442Z" fill="#8AD092"/>
<path d="M44.6263 52.962C44.5208 53.0388 44.3994 53.1291 44.2594 53.2346L44.6263 52.962Z" fill="#AADFAB"/>
<path fill-rule="evenodd" clip-rule="evenodd" d="M54.0498 39.3659C54.0487 39.3398 54.1787 39.0069 54.3474 38.6593C55.3055 36.5367 55.6797 34.5429 55.6536 31.7532C55.6293 29.3172 55.3658 27.7296 54.6974 25.8573C52.8445 20.7451 48.5456 16.6374 43.3836 15.0416C41.0595 14.3929 39.7698 14.2013 37.497 14.2747C34.5297 14.4098 32.199 15.0428 29.7418 16.4016C26.9388 17.945 24.5709 20.178 23.1173 22.6616C22.1769 24.4216 21.72 25.414 21.1745 27.2093C20.6379 29.0787 20.5103 30.7086 20.6964 33.2559C20.8678 35.7644 21.1845 37.0616 22.1363 39.1319C24.9497 45.279 31.0795 49.3245 37.6695 49.3811L39.2679 49.394L39.405 49.9476C39.4733 50.2579 39.6345 51.314 39.7748 52.2981C39.9018 53.2948 40.1015 54.2558 40.2003 54.4538C40.4633 54.9213 40.9621 55.1146 41.5855 54.973C41.6883 54.9497 41.7703 54.931 41.8525 54.9036C42.1766 54.7954 42.5037 54.5503 44.1208 53.3384L44.2594 53.2346C44.3994 53.1291 44.5208 53.0388 44.6263 52.962C48.2335 49.5935 50.4752 47.8869 54.9861 45.2674C55.0126 45.2422 55.6116 44.8569 56.3311 44.4155C57.7489 43.5279 58.2283 43.0643 58.3249 42.5056C58.4566 41.6802 57.7636 41.0709 55.3546 39.9312L54.0498 39.3659ZM31.7335 28.8322C31.9871 29.2541 32.9724 29.9474 33.5952 30.1183C35.956 30.8204 38.2887 28.9951 38.1838 26.51C38.1196 24.9893 37.0376 23.692 35.7655 23.033C35.1634 22.7302 33.5356 23.1242 32.8837 23.5048C32.2063 23.8995 31.4942 24.7149 31.2598 25.3665C31.1537 25.646 31.0852 25.8847 31.1119 25.8967C30.9122 26.4428 30.9591 27.7832 31.7335 28.8322Z" fill="#AADFAB"/>
<path d="M56.05 50.6653L74.3406 77.3045C75.0165 78.9546 75.3597 79.8793 74.9254 81.5145L66.6339 72.7965L52.647 52.4253L56.05 50.6653Z" fill="#AADFAB"/>
<path opacity="0.05" fill-rule="evenodd" clip-rule="evenodd" d="M30.2665 47.5706C32.5461 48.7168 35.0721 49.3588 37.6696 49.3811L39.2679 49.394L39.4051 49.9475C39.4734 50.2579 39.6345 51.3139 39.7748 52.2981C39.9018 53.2948 40.1015 54.2558 40.2004 54.4538C40.4633 54.9212 40.9622 55.1146 41.5855 54.973C41.6883 54.9497 41.7703 54.931 41.8525 54.9036C42.1766 54.7954 42.5038 54.5502 44.1208 53.3384L44.2594 53.2346L44.6264 52.962C48.2335 49.5934 50.4752 47.8868 54.9861 45.2673C55.0127 45.2421 55.6116 44.8569 56.3312 44.4155C57.7489 43.5279 58.2283 43.0643 58.325 42.5056C58.4567 41.6802 57.7636 41.0708 55.3546 39.9312L54.0498 39.3659C54.0487 39.3398 54.1787 39.0069 54.3474 38.6593C55.3055 36.5367 55.6797 34.5429 55.6536 31.7532C55.6293 29.3172 55.3658 27.7296 54.6974 25.8573C54.3316 24.8478 53.8703 23.8776 53.3259 22.9581L30.2665 47.5706Z" fill="#0E160E"/>
</svg>
