<svg width="100" height="100" viewBox="0 0 100 100" fill="none" xmlns="http://www.w3.org/2000/svg">
<path d="M48.6603 52.8796L38.6603 70.2001L30 65.2001L40.3126 47.9633L47.6948 36.4827L48.6603 52.8796Z" fill="#CCB7E5"/>
<path d="M50.8356 74.5883L45.6592 93.9068L36 91.3186L41.5 72L45.6592 59L50.8356 74.5883Z" fill="#CCB7E5"/>
<path d="M51.8587 52.8796L61.8587 70.2001L70.5189 65.2001L60.2063 47.9633L52.8241 36.4827L51.8587 52.8796Z" fill="#CCB7E5"/>
<path d="M49.5503 74.8381L54.7267 94.1566L64.3859 91.5685L58.8859 72.2499L54.7267 59.2499L49.5503 74.8381Z" fill="#CCB7E5"/>
<rect x="55" y="30" width="45" height="10" transform="rotate(90 55 30)" fill="#CCB7E5"/>
<circle cx="49.5" cy="21.5" r="17.5" fill="#CCB7E5"/>
<path opacity="0.1" d="M64.6109 12.5C69.4434 20.8701 66.5756 31.573 58.2054 36.4054C49.8353 41.2379 39.1325 38.3701 34.3 30C40.3622 26.5 41.0853 26.0825 49.4554 21.25C57.8256 16.4175 57.6827 16.5 64.6109 12.5Z" fill="#15101A"/>
<path d="M37.6603 71.9321L39.1887 72.8146L34.0765 90.7709L33.5202 92.7247L35.4824 93.2504L45.1417 95.8386L47.0735 96.3563L47.5912 94.4244L50.1595 84.8391L52.7948 94.6743L53.3125 96.6061L55.2443 96.0885L64.9036 93.5003L66.8657 92.9746L66.3095 91.0208L61.155 72.9157L62.8587 71.9321L71.5189 66.9321L73.2781 65.9164L72.2352 64.1732L61.9226 46.9365L61.906 46.9087L61.8885 46.8816L57.1143 39.4568C64.0984 36.4916 69 29.5705 69 21.5C69 10.7304 60.2696 2 49.5 2C38.7304 2 30 10.7304 30 21.5C30 29.9925 35.4273 37.2129 43 39.8898V40.0861L38.6304 46.8816L38.6129 46.9087L38.5963 46.9365L28.2837 64.1732L27.2408 65.9164L29 66.9321L37.6603 71.9321Z" stroke="#F9F0FC" stroke-width="4"/>
</svg>
